<?xml version="1.0" encoding="UTF-8" standalone="no"?>
<svg xmlns:rdf="http://www.w3.org/1999/02/22-rdf-syntax-ns#" xmlns="http://www.w3.org/2000/svg" xml:space="preserve" version="1.1" xmlns:cc="http://creativecommons.org/ns#" xmlns:dc="http://purl.org/dc/elements/1.1/" viewBox="0 0 853 165"><metadata><rdf:RDF><cc:Work rdf:about=""><dc:format>image/svg+xml</dc:format><dc:type rdf:resource="http://purl.org/dc/dcmitype/StillImage"/><dc:title/></cc:Work></rdf:RDF></metadata><g transform="matrix(1.25,0,0,-1.25,0,165.18001)"><g transform="scale(0.1,0.1)"><path fill-rule="nonzero" fill="#FFF" d="m3540,21.2,334,0,0,1270-334,0,0-1270z"/><path fill-rule="nonzero" fill="#FFF" d="m4340,1300,215-786,3.6,0,0,786,312,0,0-1270-366,0-222,787-3.59,0,0-787-312,0,0,1270,373,0"/><path fill-rule="nonzero" fill="#FFF" d="m5470,959c1.62,58.5-24.2,140-95.1,137-71.7,6.79-115-71.8-103-135,8.35-76.4,85.7-115,148-143,117-50.9,251-88.9,328-198,77.2-101,78.2-239,53.8-358-20-106-90-190-190-225-140-50.1-290-47.6-430-22.6-100,18.2-200,91.5-230,196-19.4,60-19.4,124-18.9,186h323c-0.356-58.8-3.09-133,55.9-166,65.7-38.8,156,8.64,159,85.4,11.1,58.8-16.9,120-68.6,150-114,75.6-262,92.2-359,195-74.9,73.2-100,181-94.1,283,0.901,126,53.8,261,171,322,121,62.3,264,61.2,396,39.4,99.6-16.7,197-77.3,233-175,26.7-64.6,34.3-135,34.5-205h-312v30.4z"/><path fill-rule="nonzero" fill="#FFF" d="m6300,1040c-30.5-180-61-361-91.5-541h187c-30.5,180-61.1,361-91.6,541h-3.29-0.171zm212,261c104-425,208-850,312-1270h-355c-11.4,74.4-22.8,149-34.2,223h-265c-11.4-74.4-22.7-149-34.1-223h-350c102,425,205,850,307,1270h420z"/><path fill-rule="nonzero" fill="#FFF" d="m6600,1300,226,0,0-957-226,957"/><g style="letter-spacing:0px;word-spacing:0px;" font-weight="normal" transform="matrix(1,0,0,-1,3209.3612,-311.51218)" font-size="316.38250732000000198px" font-style="normal" font-family="Sans" line-height="125%" fill="#FFF"><path d="m-2190-1610v1280h-290v-861c-38.6,287-77.2,574-116,861h-206c-40.7-280-81.4-561-122-841v841h-290v-1280h429c31.7,198,57.2,397,85.9,596,25.2-199,50.4-397,75.6-596h433z"/><path d="m-1340-1010c-8.08,175,22.7,355-34.7,525-55.4,116-189,180-314,172-111,4.29-236-13.5-312-102-72-94.3-68.3-219-68-332,1.59-132-4.12-265,10.5-396,18-107,94.2-207,202-232,128-40.8,276-26,391,45.8,87.9,61.6,133,172,125,278,0.353,13.9,0.464,27.8,0.548,41.7zm-318-78.8c14.7-38.5,2.12-93.8-37.9-111-69.5-2.16-59,92.1-54.6,139,1.3,149-3.91,298,1.52,447-16.5,38.2-2.36,101,43.6,109,66.9-10.9,49.9-98.5,46.5-147,2.46-145,0.242-291,0.803-436z"/><path d="m-508-1380v1050h-324c1.84-28.9,3.68-57.8,5.52-86.7-73.9,132-290,146-377,21.4-47.3-77.8-34.9-173-37.7-260-0.253-240-0.192-480-0.188-720h318c1.19,282-2.63,564,2.42,846,17,62.6,117,22.3,92-34.4,5.53-271,0.884-541,2.47-812h318z"/><path d="m266-1380c-49.6,348-99.3,697-149,1050h-415c-53.3-348-107-697-160-1050h284c29.7,254,59.4,508,89,763,26.3-254,38.9-509,66.2-763h284z"/></g><path d="m3480,726,0-706-99.3,0z" fill="#FFF"/></g></g></svg>
