<?xml version="1.0" encoding="UTF-8" standalone="no"?>
<!-- Created with Inkscape (http://www.inkscape.org/) -->
<svg id="svg3004" xmlns:rdf="http://www.w3.org/1999/02/22-rdf-syntax-ns#" xmlns="http://www.w3.org/2000/svg" xml:space="preserve" viewBox="0 0 723 134" version="1.1" xmlns:cc="http://creativecommons.org/ns#" xmlns:dc="http://purl.org/dc/elements/1.1/"><metadata id="metadata3010"><rdf:RDF><cc:Work rdf:about=""><dc:format>image/svg+xml</dc:format><dc:type rdf:resource="http://purl.org/dc/dcmitype/StillImage"/><dc:title/></cc:Work></rdf:RDF></metadata><g id="g3012" transform="matrix(1.25,0,0,-1.25,0,134.2375)"><g id="g3014" fill-rule="nonzero" transform="scale(0.1,0.1)"><path id="path3016" fill="#FFF" d="m350,318c37.4,248,74.9,496,112,744h229v-1050h-156v752c-37-247-75-498-113-748h-156c-40.9,247-81.9,494-123,741v-741h-144v1050h229c40.4-248,80.9-496,121-744z"/><path id="path3018" fill="#FFF" d="m963,255c0-74.9,33-103,85.4-103s85.4,28.4,85.4,103v566c0,74.9-32.9,103-85.4,103-52.4,0-85.4-28.4-85.4-103v-566zm-165,556c0,168,88.4,264,250,264s250-95.8,250-264v-545c0-168-88.4-264-250-264s-250,95.9-250,264v545"/><path id="path3020" fill="#FFF" d="m1560,1060,0-809c0-74.9,32.9-102,85.4-102,52.4,0,85.4,26.9,85.4,102v809h156v-798c-10-166-100-262-260-262s-240,95.9-240,264v798h165"/><path id="path3022" fill="#FFF" d="m2250,207,126,855,151,0-162-1050-246,0-162,1050,166,0,126-855"/><path id="path3024" fill="#727171" d="m3150,895,116-236,260-37.8-188-184,44.5-259-233,122-233-122,44.5,259-188,184,260,37.8,116,236"/><path id="path3026" fill="#ea3c2b" d="m3770,12.7,165,0,0,1050-165,0,0-1050z"/><path id="path3028" fill="#ea3c2b" d="m4200,772,0-759-148,0,0,1050,207,0,169-628,0,628,147,0,0-1050-169,0-205,759"/><path id="path3030" fill="#ea3c2b" d="m4920,1070c160,0,243-95.8,243-264v-40.5h-156v50.9c0,74.9-30,103-82.4,103s-82.4-28.4-82.4-103c0-216,322-256,322-556,0-168-83.9-264-246-264s-246,95.9-246,264v71.9h156v-82.4c0-74.9,32.9-102,85.4-102,52.4,0,85.4,26.9,85.4,102,0,216-322,256-322,556,0,168,82.4,264,243,264"/><path id="path3032" fill="#ea3c2b" d="m5410,345,159,0-79.4,530-79.4-530zm376-333-166,0-28.5,190-202,0-28.4-190-151,0,168,1050,241,0,168-1050"/></g></g></svg>
